<?xml version="1.0" encoding="iso-8859-1"?>
<!-- Generator: Adobe Illustrator 17.1.0, SVG Export Plug-In . SVG Version: 6.00 Build 0)  -->
<!DOCTYPE svg PUBLIC "-//W3C//DTD SVG 1.1//EN" "http://www.w3.org/Graphics/SVG/1.1/DTD/svg11.dtd">
<svg version="1.1" id="Capa_1" xmlns="http://www.w3.org/2000/svg" xmlns:xlink="http://www.w3.org/1999/xlink" x="0px" y="0px"
	 viewBox="0 0 92.008 92.008" style="enable-background:new 0 0 92.008 92.008;" xml:space="preserve">
<g>
	<path d="M46.005,21.672c5.975,0,10.835-4.861,10.835-10.836S51.98,0,46.005,0C40.03,0,35.169,4.861,35.169,10.836
		S40.03,21.672,46.005,21.672z"/>
	<path d="M68.311,38.201l-8.574-11.946c-0.836-1.164-2.546-2.042-3.979-2.042h-1.337h-0.913h-15.01h-0.91h-1.34
		c-1.433,0-3.143,0.878-3.979,2.042l-8.574,11.945c-0.862,1.202-0.969,3.153-0.243,4.441l6.943,12.324
		c0.711,1.262,2.402,2.251,3.85,2.252l-2.365,9.802c-0.424,1.759-0.462,4.523-0.086,6.294l2.755,12.966
		c0.444,2.09,2.466,3.727,4.602,3.727h2.354c1.089,0,2.078-0.449,2.712-1.232c0.635-0.784,0.869-1.844,0.642-2.91l-2.755-12.965
		c-0.312-1.471-0.278-3.948,0.075-5.409l1.604-6.648h3.284v26.166c0,2.757,2.243,5,5,5h0.354c2.757,0,5-2.243,5-5V57.842v-0.503
		v-0.12h0.339c1.449,0,3.142-0.989,3.853-2.252l6.942-12.324C69.28,41.354,69.174,39.403,68.311,38.201z M34.589,47.938
		l-3.373-5.495c-0.369-0.601-0.337-1.673,0.065-2.251l3.308-4.747V47.938z M57.421,35.448l3.305,4.743
		c0.403,0.578,0.434,1.651,0.065,2.251l-3.371,5.492V35.448z"/>
</g>
<g>
</g>
<g>
</g>
<g>
</g>
<g>
</g>
<g>
</g>
<g>
</g>
<g>
</g>
<g>
</g>
<g>
</g>
<g>
</g>
<g>
</g>
<g>
</g>
<g>
</g>
<g>
</g>
<g>
</g>
</svg>
